<?xml version="1.0" encoding="utf-8"?>
<!-- Generator: Adobe Illustrator 16.0.3, SVG Export Plug-In . SVG Version: 6.00 Build 0)  -->
<!DOCTYPE svg PUBLIC "-//W3C//DTD SVG 1.1//EN" "http://www.w3.org/Graphics/SVG/1.1/DTD/svg11.dtd">
<svg version="1.1" id="Layer_1" xmlns="http://www.w3.org/2000/svg" xmlns:xlink="http://www.w3.org/1999/xlink" x="0px" y="0px"
	 width="431px" height="133.499px" viewBox="0 0 431 133.499" enable-background="new 0 0 431 133.499" xml:space="preserve">
<g>
	<defs>
		<rect id="SVGID_1_" x="-196" y="-230.28" width="841.89" height="595.28"/>
	</defs>
	<clipPath id="SVGID_2_">
		<use xlink:href="#SVGID_1_"  overflow="visible"/>
	</clipPath>
	<path clip-path="url(#SVGID_2_)" fill="#414142" d="M158.983,10.682c0,2.067-0.981,4.169-3.364,5.641
		c3.223,1.016,4.274,3.223,4.274,5.85c0,4.24-3.258,7.147-8.443,7.147H140.8V4.095h10.335
		C156.565,4.095,158.983,7.249,158.983,10.682 M150.224,14.536c1.892,0,3.714-1.051,3.714-3.258c0-1.787-1.367-2.803-3.609-2.803
		h-4.414v6.061H150.224z M154.673,21.788c0-2.102-1.471-2.943-3.713-2.943h-5.045v6.131h5.255
		C153.622,24.976,154.673,23.644,154.673,21.788"/>
	<path clip-path="url(#SVGID_2_)" fill="#414142" d="M168.162,10.121v12.928c0,1.471,0.561,2.242,2.172,2.242
		c1.401,0,3.363-0.771,5.01-1.682V10.121h4.94V29.32h-4.239l-0.386-1.997h-0.14c-2.382,1.436-4.66,2.417-6.691,2.417
		c-3.434,0-5.606-1.682-5.606-5.71V10.121H168.162z"/>
	<path clip-path="url(#SVGID_2_)" fill="#414142" d="M199.484,24.625v4.274c-1.997,0.596-3.854,0.841-6.061,0.841
		c-4.73,0-9.669-2.102-9.669-10.02c0-7.883,4.939-10.02,9.669-10.02c2.207,0,4.064,0.245,6.061,0.841v4.309
		c-1.751-0.525-3.539-0.841-5.255-0.841c-3.469,0-5.431,1.577-5.431,5.711c0,3.363,1.612,5.746,5.431,5.746
		C195.945,25.466,197.733,25.115,199.484,24.625"/>
	<path clip-path="url(#SVGID_2_)" fill="#414142" d="M218.823,10.751c0,3.224-1.051,6.657-4.555,8.794l1.822,3.083
		c0.946,1.646,2.347,2.417,4.309,2.452v4.449c-0.525,0.106-1.051,0.106-1.611,0.106c-2.873,0-5.325-1.332-7.147-4.66l-1.857-3.398
		l-1.752,0.736v7.077h-4.939V2.658h4.939v15.415l1.962-0.841c1.857-0.805,3.889-2.417,3.889-6.235v-0.876h4.94V10.751z"/>
	<path clip-path="url(#SVGID_2_)" fill="#414142" d="M228.424,7.774h-5.08V3.149h5.08V7.774z M228.354,29.32h-4.939V10.121h4.939
		V29.32z"/>
	<path clip-path="url(#SVGID_2_)" fill="#414142" d="M244.995,29.32V16.392c0-1.471-0.562-2.242-2.173-2.242
		c-1.436,0-3.328,0.806-5.01,1.682V29.32h-4.939V10.121h4.625v2.032h0.14c2.348-1.436,4.659-2.452,6.691-2.452
		c3.434,0,5.604,1.682,5.604,5.745V29.32H244.995z"/>
	<path clip-path="url(#SVGID_2_)" fill="#414142" d="M261.707,9.7c1.961,0,4.169,0.421,6.586,0.421c1.366,0,2.838-0.105,4.239-0.386
		v3.889c-1.051,0-2.383-0.035-3.644-0.035c0.841,0.771,1.331,1.892,1.331,3.258c0,4.625-3.749,6.341-8.338,6.341
		c-0.596,0-1.577,0-2.487-0.14c-0.245,0.386-0.421,0.876-0.421,1.367c0,0.735,0.386,1.296,1.401,1.296h5.605
		c3.259,0,6.096,0.876,6.096,4.975c0,4.309-4.028,6.236-10.685,6.236c-5.781,0-8.408-1.542-8.408-4.66
		c0-1.786,0.735-3.363,3.188-4.134v-0.21c-1.017-0.596-1.507-1.682-1.507-2.523c0-1.121,0.561-2.452,1.892-3.258
		c-1.997-0.946-3.293-2.767-3.293-5.395C253.264,12.433,256.381,9.7,261.707,9.7 M260.726,29.459
		c-1.401,0.105-2.663,0.631-2.663,2.207c0,1.542,1.297,1.857,3.994,1.857c3.188,0,4.905-0.56,4.905-2.347
		c0-1.191-0.806-1.717-2.032-1.717H260.726z M261.776,13.52c-2.522,0-3.503,1.226-3.503,3.153c0,1.927,0.98,3.118,3.503,3.118
		c2.487,0,3.469-1.121,3.469-3.153C265.245,14.745,264.264,13.52,261.776,13.52"/>
	<path clip-path="url(#SVGID_2_)" fill="#414142" d="M287.458,29.32V16.392c0-1.471-0.666-2.207-2.173-2.207
		c-1.436,0-3.293,0.771-5.01,1.647V29.32h-4.939V2.589h4.939v9.424c2.313-1.366,4.555-2.312,6.481-2.312
		c3.434,0,5.641,1.682,5.641,5.745V29.32H287.458z"/>
	<path clip-path="url(#SVGID_2_)" fill="#414142" d="M307.254,17.618v-1.262c0-1.541-0.946-2.592-3.994-2.592
		c-1.611,0-4.38,0.316-6.236,0.876v-4.134c2.417-0.526,5.36-0.806,7.462-0.806c4.8,0,7.743,2.313,7.743,6.972v12.647h-4.239
		l-0.351-1.997h-0.14c-2.067,1.472-4.135,2.278-6.097,2.278c-3.328,0-5.99-2.033-5.99-6.096c0-3.609,2.627-5.886,7.322-5.886
		H307.254z M307.254,20.876h-3.714c-2.173,0-3.153,0.806-3.153,2.242c0,1.612,1.121,2.383,2.662,2.383
		c1.507,0,3.084-0.596,4.205-1.332V20.876z"/>
	<path clip-path="url(#SVGID_2_)" fill="#414142" d="M328.17,29.32V16.356c0-1.436-0.666-2.207-2.277-2.207
		c-1.332,0-2.908,0.736-4.415,1.682V29.32h-4.939V10.121h4.624v2.032h0.141c2.067-1.401,4.134-2.452,6.307-2.452
		c2.172,0,3.993,0.806,4.904,2.698c2.348-1.682,4.484-2.698,6.727-2.698c3.153,0,5.535,1.646,5.535,5.745V29.32h-4.939V16.356
		c0-1.436-0.701-2.207-2.277-2.207c-1.262,0-3.083,0.701-4.449,1.682V29.32H328.17z"/>
	<path clip-path="url(#SVGID_2_)" fill="#414142" d="M362.224,10.191l-0.175,4.239c-1.401-0.245-3.539-0.525-5.045-0.525
		c-2.593,0-3.679,0.525-3.679,1.717c0,1.261,1.542,1.576,3.608,1.926c2.908,0.526,6.307,1.262,6.307,5.781
		c0,4.344-2.873,6.411-8.163,6.411c-1.998,0-4.905-0.175-6.657-0.42v-4.379c2.103,0.315,4.766,0.63,6.412,0.63
		c2.382,0,3.363-0.735,3.363-2.032c0-1.331-1.822-1.611-4.064-1.996c-2.662-0.491-5.851-1.472-5.851-5.641
		c0-4.59,3.328-6.201,8.163-6.201C358.3,9.701,360.507,9.876,362.224,10.191"/>
	<path clip-path="url(#SVGID_2_)" fill="#414142" d="M378.656,29.32V16.392c0-1.471-0.666-2.207-2.172-2.207
		c-1.437,0-3.294,0.771-5.012,1.647V29.32h-4.938V2.589h4.938v9.424c2.313-1.366,4.556-2.312,6.482-2.312
		c3.434,0,5.64,1.682,5.64,5.745V29.32H378.656z"/>
	<path clip-path="url(#SVGID_2_)" fill="#414142" d="M392.95,7.774h-5.08V3.149h5.08V7.774z M392.88,29.32h-4.938V10.121h4.938
		V29.32z"/>
	<path clip-path="url(#SVGID_2_)" fill="#414142" d="M409.172,15.096c-2.417,0.385-4.379,1.156-6.832,2.137V29.32H397.4V10.121
		h4.694v3.118c1.997-1.296,4.134-3.118,7.077-3.223V15.096z"/>
	<path clip-path="url(#SVGID_2_)" fill="#414142" d="M428.126,28.514c-2.628,0.77-4.976,1.226-7.673,1.226
		c-6.341,0-9.704-3.118-9.704-10.02c0-6.761,3.573-10.019,9.284-10.019c6.691,0,8.442,4.309,8.442,9.144v2.207h-12.577
		c0.035,3.223,2.207,4.379,5.781,4.379c1.682,0,4.309-0.491,6.446-1.156V28.514z M423.431,17.513
		c-0.034-1.787-0.595-3.959-3.713-3.959c-2.487,0-3.819,1.822-3.819,3.959H423.431z"/>
	<path clip-path="url(#SVGID_2_)" fill="#414142" d="M151.415,45.718c2.172,0,4.344,0.21,6.867,0.876v4.589
		c-1.437-0.49-3.924-1.086-5.886-1.086c-4.765,0-7.533,2.278-7.533,8.514c0,6.691,3.399,8.828,7.253,8.828
		c1.962,0,4.309-0.49,6.236-1.296v4.519c-2.208,0.807-4.905,1.121-6.867,1.121c-7.953,0-11.841-4.799-11.841-13.066
		C139.644,50.692,143.812,45.718,151.415,45.718"/>
	<path clip-path="url(#SVGID_2_)" fill="#414142" d="M170.265,71.783c-5.465,0-9.739-3.014-9.739-10.021
		c0-6.971,4.274-10.019,9.739-10.019c5.5,0,9.774,3.118,9.774,10.019C180.039,68.665,175.765,71.783,170.265,71.783 M170.3,55.983
		c-3.328,0-4.729,2.102-4.729,5.78c0,3.714,1.401,5.816,4.729,5.816s4.694-2.102,4.694-5.816
		C174.994,58.085,173.628,55.983,170.3,55.983"/>
	<rect x="183.544" y="44.632" clip-path="url(#SVGID_2_)" fill="#414142" width="4.939" height="26.731"/>
	<rect x="193.039" y="44.632" clip-path="url(#SVGID_2_)" fill="#414142" width="4.94" height="26.731"/>
	<path clip-path="url(#SVGID_2_)" fill="#414142" d="M218.858,70.557c-2.627,0.771-4.974,1.227-7.672,1.227
		c-6.341,0-9.705-3.118-9.705-10.021c0-6.761,3.574-10.019,9.285-10.019c6.691,0,8.443,4.309,8.443,9.144v2.207h-12.578
		c0.035,3.223,2.208,4.379,5.781,4.379c1.682,0,4.309-0.491,6.446-1.156V70.557z M214.165,59.556
		c-0.035-1.787-0.596-3.959-3.714-3.959c-2.487,0-3.819,1.822-3.819,3.959H214.165z"/>
	<path clip-path="url(#SVGID_2_)" fill="#414142" d="M230.211,51.743c1.962,0,4.169,0.421,6.586,0.421
		c1.367,0,2.838-0.105,4.239-0.386v3.889c-1.051,0-2.382-0.035-3.644-0.035c0.841,0.771,1.332,1.892,1.332,3.258
		c0,4.625-3.749,6.341-8.34,6.341c-0.594,0-1.575,0-2.486-0.14c-0.245,0.386-0.42,0.876-0.42,1.367c0,0.735,0.385,1.296,1.401,1.296
		h5.605c3.258,0,6.096,0.876,6.096,4.975c0,4.309-4.029,6.235-10.686,6.235c-5.78,0-8.408-1.542-8.408-4.658
		c0-1.787,0.736-3.364,3.189-4.136v-0.21c-1.017-0.596-1.507-1.682-1.507-2.522c0-1.121,0.56-2.452,1.893-3.258
		c-1.998-0.946-3.294-2.767-3.294-5.395C221.767,54.476,224.885,51.743,230.211,51.743 M229.23,71.503
		c-1.402,0.104-2.663,0.63-2.663,2.207c0,1.541,1.296,1.856,3.994,1.856c3.188,0,4.904-0.561,4.904-2.347
		c0-1.191-0.806-1.717-2.032-1.717H229.23z M230.281,55.563c-2.522,0-3.504,1.226-3.504,3.153c0,1.927,0.981,3.118,3.504,3.118
		c2.487,0,3.468-1.121,3.468-3.153C233.749,56.788,232.769,55.563,230.281,55.563"/>
	<path clip-path="url(#SVGID_2_)" fill="#414142" d="M259.991,70.557c-2.628,0.771-4.976,1.227-7.673,1.227
		c-6.341,0-9.704-3.118-9.704-10.021c0-6.761,3.573-10.019,9.284-10.019c6.691,0,8.442,4.309,8.442,9.144v2.207h-12.577
		c0.035,3.223,2.207,4.379,5.781,4.379c1.682,0,4.309-0.491,6.446-1.156V70.557z M255.296,59.556
		c-0.034-1.787-0.595-3.959-3.713-3.959c-2.487,0-3.819,1.822-3.819,3.959H255.296z"/>
	<path clip-path="url(#SVGID_2_)" fill="#414142" d="M284.376,67.404c1.296,0,2.348-0.175,3.749-0.49V58.05h5.08v12.017
		c-2.663,0.91-6.062,1.716-9.564,1.716c-8.443,0-12.157-5.009-12.157-13.137c0-7.498,4.555-12.928,13.488-12.928
		c2.417,0,5.185,0.315,7.357,0.876c0,0.035-0.035,4.484-0.035,4.519c-2.172-0.63-5.22-1.016-7.146-1.016
		c-4.205,0-8.444,2.383-8.444,8.689C276.703,64.531,279.752,67.404,284.376,67.404"/>
	<path clip-path="url(#SVGID_2_)" fill="#414142" d="M309.007,57.139c-2.417,0.385-4.379,1.156-6.832,2.137v12.087h-4.939V52.164
		h4.694v3.118c1.997-1.296,4.135-3.118,7.077-3.223V57.139z"/>
	<path clip-path="url(#SVGID_2_)" fill="#414142" d="M320.288,71.783c-5.466,0-9.739-3.014-9.739-10.021
		c0-6.971,4.273-10.019,9.739-10.019c5.5,0,9.774,3.118,9.774,10.019C330.063,68.665,325.788,71.783,320.288,71.783 M320.323,55.983
		c-3.328,0-4.729,2.102-4.729,5.78c0,3.714,1.401,5.816,4.729,5.816s4.694-2.102,4.694-5.816
		C325.018,58.085,323.651,55.983,320.323,55.983"/>
	<path clip-path="url(#SVGID_2_)" fill="#414142" d="M338.331,52.164v12.928c0,1.471,0.562,2.242,2.172,2.242
		c1.401,0,3.363-0.771,5.01-1.682V52.164h4.94v19.2h-4.239l-0.386-1.997h-0.14c-2.383,1.436-4.66,2.417-6.692,2.417
		c-3.433,0-5.605-1.683-5.605-5.71V52.164H338.331z"/>
	<path clip-path="url(#SVGID_2_)" fill="#414142" d="M354.938,78.544v-26.38h4.939v1.892c1.962-1.472,4.064-2.277,6.062-2.277
		c3.679,0,6.901,2.838,6.901,9.459c0,7.567-3.924,10.44-9.073,10.44c-1.227,0-2.593-0.175-3.89-0.49v7.356H354.938z M364.328,56.123
		c-1.297,0-2.838,0.63-4.45,1.751v9.285c1.156,0.315,2.277,0.455,3.224,0.455c3.188,0,4.694-2.032,4.694-6.096
		C367.796,57.665,366.359,56.123,364.328,56.123"/>
	<path clip-path="url(#SVGID_2_)" fill="#414142" d="M145.019,116.262h2.365l4.728,13.421h-1.768l-1.061-3.071h-6.162l-1.061,3.071
		h-1.75L145.019,116.262z M143.493,125.159h5.361l-2.55-7.465h-0.261L143.493,125.159z"/>
	<path clip-path="url(#SVGID_2_)" fill="#414142" d="M156.526,129.683h-0.782l-3.314-10.053h1.732
		c0.893,2.775,1.768,5.567,2.662,8.359h0.223c0.894-2.792,1.769-5.584,2.662-8.359h1.713l-4.486,13.869h-1.676L156.526,129.683z"/>
	<rect x="163.509" y="115.479" clip-path="url(#SVGID_2_)" fill="#414142" width="1.583" height="14.204"/>
	<path clip-path="url(#SVGID_2_)" fill="#414142" d="M176.207,129.255c-1.266,0.428-2.364,0.652-3.798,0.652
		c-3.183,0-4.877-1.564-4.877-5.27c0-3.406,1.619-5.229,4.635-5.229c3.537,0,4.263,2.438,4.263,4.914v0.763h-7.26
		c0.018,2.457,1.322,3.407,3.574,3.407c1.061,0,2.402-0.28,3.463-0.652V129.255z M174.792,123.894c0-1.452-0.373-3.184-2.699-3.184
		c-1.992,0-2.942,1.358-2.942,3.184H174.792z"/>
	<path clip-path="url(#SVGID_2_)" fill="#414142" d="M183.991,126.797c0-1.229-0.987-1.377-2.439-1.582
		c-1.545-0.224-3.276-0.596-3.276-2.849c0-2.252,1.805-2.959,4.002-2.959c0.968,0,1.973,0.112,2.793,0.242v1.433
		c-0.782-0.13-1.825-0.279-2.625-0.279c-1.788,0-2.532,0.484-2.532,1.489c0,1.192,0.968,1.359,2.383,1.545
		c1.582,0.225,3.332,0.522,3.332,2.886c0,2.029-1.284,3.184-3.89,3.184c-1.155,0-2.551-0.112-3.407-0.205v-1.47
		c1.265,0.186,2.475,0.297,3.313,0.297C183.189,128.528,183.991,127.988,183.991,126.797"/>
	<path clip-path="url(#SVGID_2_)" fill="#414142" d="M187.808,129.385v-13.906h1.582v5.177c1.267-0.802,2.42-1.268,3.705-1.268
		c1.936,0,3.686,1.415,3.686,5.063c0,4.133-2.401,5.456-5.175,5.456C190.377,129.907,189,129.701,187.808,129.385 M192.555,120.803
		c-0.819,0-1.936,0.393-3.165,1.21v6.273c0.801,0.187,1.508,0.261,2.216,0.261c2.345,0,3.518-1.247,3.518-4.002
		C195.124,121.994,194.156,120.803,192.555,120.803"/>
	<path clip-path="url(#SVGID_2_)" fill="#414142" d="M200.656,119.63v7.13c0,1.062,0.54,1.714,1.75,1.714
		c1.005,0,2.308-0.522,3.574-1.267v-7.577h1.582v10.054h-1.322l-0.148-1.21c-1.434,0.838-2.886,1.433-4.114,1.433
		c-1.881,0-2.905-0.987-2.905-2.848v-7.429H200.656z"/>
	<path clip-path="url(#SVGID_2_)" fill="#414142" d="M216.017,121.213c-1.434,0.224-2.476,0.781-3.965,1.582v6.889h-1.582V119.63
		h1.526v1.807c1.191-0.744,2.364-1.732,4.021-1.88V121.213z"/>
	<path clip-path="url(#SVGID_2_)" fill="#414142" d="M220.951,129.683h-0.782l-3.314-10.053h1.732
		c0.893,2.775,1.768,5.567,2.662,8.359h0.223c0.894-2.792,1.769-5.584,2.662-8.359h1.713l-4.486,13.869h-1.676L220.951,129.683z"/>
	<polygon clip-path="url(#SVGID_2_)" fill="#414142" points="244.132,119.332 244.021,119.332 241.042,129.757 238.883,129.757 
		235.551,116.279 237.263,116.279 240.037,127.542 240.11,127.542 243.238,116.279 245.025,116.279 248.152,127.542 
		248.246,127.542 250.944,116.279 252.621,116.279 249.289,129.757 247.129,129.757 	"/>
	<path clip-path="url(#SVGID_2_)" fill="#414142" d="M257.727,129.683h-0.782l-3.313-10.053h1.731
		c0.894,2.775,1.769,5.567,2.661,8.359h0.225c0.893-2.792,1.768-5.584,2.661-8.359h1.714l-4.487,13.869h-1.676L257.727,129.683z"/>
	<path clip-path="url(#SVGID_2_)" fill="#414142" d="M271.913,127.988v1.435c-1.042,0.315-2.048,0.483-3.183,0.483
		c-2.346,0-4.934-1.099-4.934-5.25c0-4.15,2.588-5.249,4.934-5.249c1.135,0,2.141,0.167,3.183,0.502v1.434
		c-0.949-0.297-1.917-0.521-2.96-0.521c-2.308,0-3.518,1.342-3.518,3.835c0,2.271,1.098,3.835,3.518,3.835
		C269.996,128.491,270.964,128.286,271.913,127.988"/>
	<path clip-path="url(#SVGID_2_)" fill="#414142" d="M278.432,119.407c2.568,0,4.951,1.358,4.951,5.25c0,3.89-2.383,5.25-4.951,5.25
		c-2.569,0-4.952-1.36-4.952-5.25C273.479,120.766,275.862,119.407,278.432,119.407 M278.413,120.803
		c-2.253,0-3.296,1.489-3.296,3.854c0,2.364,1.043,3.853,3.333,3.853c2.252,0,3.295-1.488,3.295-3.853
		C281.745,122.292,280.702,120.803,278.413,120.803"/>
	<path clip-path="url(#SVGID_2_)" fill="#414142" d="M300.624,122.348v7.335h-1.582v-7.13c0-1.08-0.559-1.693-1.769-1.693
		c-0.894,0-2.066,0.483-3.333,1.284c0.019,0.299,0.019,0.597,0.019,0.875v6.664h-1.582v-7.13c0-1.08-0.54-1.693-1.75-1.693
		c-1.005,0-1.991,0.466-3.314,1.266v7.558h-1.581V119.63h1.489v1.229c1.136-0.707,2.513-1.451,3.891-1.451
		c1.266,0,2.215,0.52,2.625,1.563c1.266-0.855,2.644-1.563,4.021-1.563C299.507,119.408,300.624,120.338,300.624,122.348"/>
	<path clip-path="url(#SVGID_2_)" fill="#414142" d="M303.421,129.385v-13.906h1.582v5.177c1.266-0.802,2.42-1.268,3.704-1.268
		c1.937,0,3.687,1.415,3.687,5.063c0,4.133-2.401,5.456-5.175,5.456C305.989,129.907,304.612,129.701,303.421,129.385
		 M308.168,120.803c-0.819,0-1.937,0.393-3.165,1.21v6.273c0.801,0.187,1.508,0.261,2.216,0.261c2.346,0,3.518-1.247,3.518-4.002
		C310.736,121.994,309.769,120.803,308.168,120.803"/>
	<path clip-path="url(#SVGID_2_)" fill="#414142" d="M322.896,129.255c-1.266,0.428-2.364,0.652-3.798,0.652
		c-3.182,0-4.877-1.564-4.877-5.27c0-3.406,1.619-5.229,4.636-5.229c3.536,0,4.263,2.438,4.263,4.914v0.763h-7.26
		c0.019,2.457,1.321,3.407,3.574,3.407c1.061,0,2.4-0.28,3.462-0.652V129.255z M321.48,123.894c0-1.452-0.372-3.184-2.699-3.184
		c-1.99,0-2.941,1.358-2.941,3.184H321.48z"/>
	<path clip-path="url(#SVGID_2_)" fill="#414142" d="M338.072,116.262h2.364l4.728,13.421h-1.768l-1.062-3.071h-6.162l-1.061,3.071
		h-1.75L338.072,116.262z M336.546,125.159h5.361l-2.551-7.465h-0.261L336.546,125.159z"/>
	<path clip-path="url(#SVGID_2_)" fill="#414142" d="M361.772,122.348v7.335h-1.582v-7.13c0-1.08-0.559-1.693-1.769-1.693
		c-0.894,0-2.066,0.483-3.333,1.284c0.019,0.299,0.019,0.597,0.019,0.875v6.664h-1.582v-7.13c0-1.08-0.54-1.693-1.75-1.693
		c-1.005,0-1.991,0.466-3.313,1.266v7.558h-1.582V119.63h1.489v1.229c1.136-0.707,2.513-1.451,3.891-1.451
		c1.266,0,2.215,0.52,2.625,1.563c1.266-0.855,2.644-1.563,4.021-1.563C360.655,119.408,361.772,120.338,361.772,122.348"/>
	<path clip-path="url(#SVGID_2_)" fill="#414142" d="M372.741,129.255c-1.266,0.428-2.364,0.652-3.798,0.652
		c-3.183,0-4.877-1.564-4.877-5.27c0-3.406,1.619-5.229,4.636-5.229c3.536,0,4.263,2.438,4.263,4.914v0.763h-7.26
		c0.018,2.457,1.321,3.407,3.574,3.407c1.061,0,2.4-0.28,3.462-0.652V129.255z M371.326,123.894c0-1.452-0.372-3.184-2.699-3.184
		c-1.991,0-2.941,1.358-2.941,3.184H371.326z"/>
	<path clip-path="url(#SVGID_2_)" fill="#414142" d="M380.879,121.213c-1.434,0.224-2.477,0.781-3.966,1.582v6.889h-1.582V119.63
		h1.526v1.807c1.191-0.744,2.364-1.732,4.021-1.88V121.213z"/>
	<path clip-path="url(#SVGID_2_)" fill="#414142" d="M387.843,126.797c0-1.229-0.986-1.377-2.438-1.582
		c-1.545-0.224-3.276-0.596-3.276-2.849c0-2.252,1.806-2.959,4.003-2.959c0.968,0,1.973,0.112,2.792,0.242v1.433
		c-0.782-0.13-1.824-0.279-2.625-0.279c-1.787,0-2.531,0.484-2.531,1.489c0,1.192,0.968,1.359,2.383,1.545
		c1.582,0.225,3.332,0.522,3.332,2.886c0,2.029-1.285,3.184-3.891,3.184c-1.154,0-2.551-0.112-3.407-0.205v-1.47
		c1.267,0.186,2.477,0.297,3.313,0.297C387.043,128.528,387.843,127.988,387.843,126.797"/>
	<path clip-path="url(#SVGID_2_)" fill="#414142" d="M398.604,129.683v-7.13c0-1.08-0.596-1.713-1.75-1.713
		c-1.005,0-2.215,0.559-3.574,1.267v7.576h-1.582v-14.204h1.582v5.344c1.08-0.597,2.606-1.414,4.021-1.414
		c1.88,0,2.885,0.985,2.885,2.847v7.428H398.604z"/>
	<path clip-path="url(#SVGID_2_)" fill="#414142" d="M408.865,123.782v-1.08c0-1.154-0.652-1.937-2.402-1.937
		c-0.875,0-2.252,0.168-3.332,0.466v-1.396c1.154-0.26,2.662-0.427,3.687-0.427c2.289,0,3.648,1.134,3.648,3.387v6.888h-1.359
		l-0.13-1.266c-1.174,0.819-2.383,1.359-3.574,1.359c-1.676,0-3.128-0.895-3.128-2.942c0-2.009,1.434-3.052,3.593-3.052H408.865z
		 M408.865,124.973h-2.83c-1.452,0-2.141,0.651-2.141,1.75c0,1.173,0.801,1.75,1.973,1.75c1.006,0,2.216-0.577,2.998-1.21V124.973z"
		/>
	<path clip-path="url(#SVGID_2_)" fill="#414142" d="M428.19,122.348v7.335h-1.582v-7.13c0-1.08-0.559-1.693-1.769-1.693
		c-0.894,0-2.066,0.483-3.333,1.284c0.019,0.299,0.019,0.597,0.019,0.875v6.664h-1.582v-7.13c0-1.08-0.54-1.693-1.75-1.693
		c-1.005,0-1.991,0.466-3.314,1.266v7.558h-1.581V119.63h1.489v1.229c1.136-0.707,2.513-1.451,3.891-1.451
		c1.266,0,2.215,0.52,2.625,1.563c1.266-0.855,2.644-1.563,4.021-1.563C427.073,119.408,428.19,120.338,428.19,122.348"/>
	<rect x="140" y="96.075" clip-path="url(#SVGID_2_)" fill="#167ABF" width="96.055" height="1.783"/>
	<rect x="236.054" y="96.075" clip-path="url(#SVGID_2_)" fill="#8FC045" width="96.058" height="1.783"/>
	<rect x="332.111" y="96.075" clip-path="url(#SVGID_2_)" fill="#E5004E" width="96.056" height="1.783"/>
	<path clip-path="url(#SVGID_2_)" fill="#1A7ABF" d="M114.394,57.31L78.489,36.503c-0.855,0.213-2.271,0.184-4.416-0.217
		c-6.184-1.154-16.384-3.779-25.666-3.881c-2.677,2.406-3.746,5.55-1.471,8.688c7.801,10.77,45.066,14.717,45.218,28.015
		c0.101,8.817-5.682,14.641-13.167,19.135c-0.338,5.001-2.781,10.511-6.939,12.958l-28.15,16.567
		c1.106,1.452,3.474,1.755,7.381-0.036c23.63-10.83,62.814-35.82,62.814-35.82C122.898,76.846,123.183,62.403,114.394,57.31"/>
	<path clip-path="url(#SVGID_2_)" fill="#DC0B21" d="M24.308,50.84c3.399,6.843,0.282,21.859-0.105,33.811
		c3.153,1.339,5.998,0.358,7.604-2.853c4.774-9.557-7.556-33.418-1.67-42.333c3.649-5.527,10.65-7.143,18.271-7.06
		c4.338-3.897,12.903-5.856,18.338-2.707l11.743,6.806c2.392-0.596,0.396-3.086-2.322-4.661C64.254,24.94,28.519,4.231,28.519,4.231
		C19.729-0.861,8.725,5.469,8.708,15.626l0.77,36.413C14.33,47.176,21.457,45.1,24.308,50.84"/>
	<path clip-path="url(#SVGID_2_)" fill="#932026" d="M48.407,32.405c9.282,0.102,19.482,2.727,25.666,3.881
		c2.145,0.401,3.561,0.43,4.416,0.217l-11.744-6.805C61.311,26.549,52.745,28.508,48.407,32.405"/>
	<path clip-path="url(#SVGID_2_)" fill="#A7C83C" d="M50.294,102.717c6.276-5.021,18.931-8.616,28.692-14.476
		c0.374-5.529-1.824-10.437-7.13-9.895c-12.02,1.229-32.165,28.153-42.812,22.438c-4.245-2.279-5.086-8.596-4.842-16.133
		c-5.763-2.448-12.558-12.654-14.695-31.192L9.479,52.04c-2.838,2.845-4.898,6.643-4.867,10.391L4.7,117.872
		c0.085,10.157,11.134,16.413,19.887,11.261l19.311-11.364C41.683,114.856,44.545,107.316,50.294,102.717"/>
	<path clip-path="url(#SVGID_2_)" fill="#006B66" d="M78.987,88.241c-9.761,5.858-22.417,9.454-28.692,14.477
		c-5.749,4.598-8.613,12.138-6.396,15.05l28.15-16.568C76.206,98.754,78.649,93.242,78.987,88.241"/>
	<path clip-path="url(#SVGID_2_)" fill="#932026" d="M24.203,84.65c0.387-11.951,3.504-26.968,0.105-33.811
		c-2.851-5.74-9.978-3.664-14.83,1.2l0.03,1.419C11.645,71.998,18.438,82.204,24.203,84.65"/>
</g>
</svg>
